<svg width="34" height="48" viewBox="0 0 34 48" fill="none" xmlns="http://www.w3.org/2000/svg">
<path fill-rule="evenodd" clip-rule="evenodd" d="M9.32011 0H24.6799C29.4495 0 33.32 3.8705 33.32 8.64006C33.32 11.9825 31.4192 14.8832 28.6403 16.3199C31.4192 17.7567 33.32 20.6576 33.32 23.9999C33.32 28.7695 29.4495 32.64 24.6799 32.64C21.9668 32.64 19.5446 31.3876 17.9602 29.4298V39.3599C17.9602 44.1295 14.0897 48 9.32011 48C4.55053 48 0.679993 44.1295 0.679993 39.3599C0.679993 36.0175 2.58077 33.1167 5.3597 31.6799C2.58077 30.2432 0.679993 27.3423 0.679993 23.9999C0.679993 20.6576 2.58075 17.7567 5.35966 16.3199C2.58076 14.8832 0.679993 11.9825 0.679993 8.64006C0.679993 3.8705 4.55053 0 9.32011 0ZM2.59999 8.64006C2.59999 4.9309 5.61091 1.92 9.32011 1.92H16.0398V15.3599H9.32011L9.29928 15.3599C5.59961 15.3487 2.59999 12.3422 2.59999 8.64006ZM16.0402 23.9086C16.0399 23.939 16.0398 23.9694 16.0398 23.9999C16.0398 24.0304 16.0399 24.0609 16.0402 24.0913V30.7198H9.32007C5.61091 30.72 2.59999 27.7091 2.59999 23.9999C2.59999 20.2977 5.59973 17.2911 9.29946 17.2799L9.32011 17.2799H16.0398L16.0402 23.9086ZM17.9602 24.0804V23.9195C18.0033 20.2565 20.9826 17.2947 24.6523 17.2799H24.6799C24.6868 17.2799 24.6936 17.2799 24.7005 17.2799C28.4003 17.2911 31.4 20.2977 31.4 23.9999C31.4 27.7091 28.3891 30.72 24.6799 30.72C20.9975 30.72 18.0034 27.7526 17.9602 24.0804ZM19.2505 17.2799C18.7765 17.6635 18.3438 18.0961 17.9602 18.5701V17.2799H19.2505ZM24.7007 15.3599C24.6938 15.3599 24.6868 15.3599 24.6799 15.3599C24.6694 15.3599 24.6589 15.3599 24.6484 15.3599H17.9602V1.92H24.6799C28.3891 1.92 31.4 4.9309 31.4 8.64006C31.4 12.3422 28.4004 15.3487 24.7007 15.3599ZM9.32011 32.6399C5.61091 32.6399 2.59999 35.6508 2.59999 39.3599C2.59999 43.0691 5.61091 46.08 9.32011 46.08C13.0293 46.08 16.0402 43.0691 16.0402 39.3599V32.6399H9.32011Z" fill="white"/>
</svg>
