<svg class="socials-git" width="48" height="48" viewBox="0 0 48 48" fill="none" xmlns="http://www.w3.org/2000/svg">
  <path fill-rule="evenodd" clip-rule="evenodd" 
  d="M18.463 47.0971C18.8015 46.8836 18.9399 46.4706 18.9399 46.1004C18.9399 45.9167 18.9358 45.5786 18.9306 45.1364C18.9207 44.3008 18.9064 43.0935 18.9064 41.8535C13.2346 43.2187 12.0535 39.1235 12.0535 39.1235C11.142 36.4693 9.79141 35.7871 9.79141 35.7871C7.93501 34.3842 9.92663 34.3842 9.92663 34.3842C11.9859 34.5359 13.0664 36.7349 13.0664 36.7349C14.889 40.223 17.8259 39.2374 19.0074 38.6307C19.1761 37.1519 19.7166 36.1282 20.2904 35.5596C15.7667 35.0287 11.0072 33.0571 11.0072 24.2604C11.0072 21.7579 11.8168 19.7105 13.0998 18.1182C12.8973 17.5496 12.1883 15.1983 13.3026 12.0514C13.3026 12.0514 15.0242 11.4446 18.906 14.4021C20.568 13.9008 22.2819 13.6459 24.0036 13.6437C25.7252 13.6437 27.4801 13.9094 29.1008 14.4021C32.983 11.4446 34.7046 12.0514 34.7046 12.0514C35.8189 15.1983 35.1094 17.5496 34.907 18.1182C36.2237 19.7105 37 21.7579 37 24.2604C37 33.0571 32.2405 34.9905 27.683 35.5596C28.4259 36.2799 29.067 37.6446 29.067 39.806C29.067 41.8578 29.0521 43.639 29.0422 44.8213C29.0372 45.4087 29.0335 45.8483 29.0335 46.0999C29.0335 46.4705 29.1721 46.8836 29.5106 47.0972C27.7592 47.6846 25.9054 47.9998 23.987 47.9998C22.0685 47.9998 20.2146 47.6846 18.463 47.0971Z" 
  fill="none" stroke-width="2"/>
</svg>